<mxfile host="app.diagrams.net" modified="2023-11-04T20:02:35.338Z" agent="Mozilla/5.0 (Windows NT 10.0; Win64; x64) AppleWebKit/537.36 (KHTML, like Gecko) Chrome/119.0.0.0 Safari/537.36" etag="DAJbP9pIi6NTQh8l0LZJ" version="22.0.8" type="device">
  <diagram id="C5RBs43oDa-KdzZeNtuy" name="Page-1">
    <mxGraphModel dx="1434" dy="1919" grid="1" gridSize="10" guides="1" tooltips="1" connect="1" arrows="1" fold="1" page="1" pageScale="1" pageWidth="827" pageHeight="1169" math="0" shadow="0">
      <root>
        <mxCell id="WIyWlLk6GJQsqaUBKTNV-0" />
        <mxCell id="WIyWlLk6GJQsqaUBKTNV-1" parent="WIyWlLk6GJQsqaUBKTNV-0" />
        <mxCell id="-IC_GQkUVM6EZ7AWoKce-122" style="edgeStyle=orthogonalEdgeStyle;rounded=0;orthogonalLoop=1;jettySize=auto;html=1;strokeWidth=1;fontSize=24;" parent="WIyWlLk6GJQsqaUBKTNV-1" source="-IC_GQkUVM6EZ7AWoKce-90" target="-IC_GQkUVM6EZ7AWoKce-94" edge="1">
          <mxGeometry relative="1" as="geometry" />
        </mxCell>
        <mxCell id="-IC_GQkUVM6EZ7AWoKce-121" style="edgeStyle=orthogonalEdgeStyle;rounded=0;orthogonalLoop=1;jettySize=auto;html=1;entryX=0.5;entryY=0;entryDx=0;entryDy=0;strokeWidth=1;fontSize=24;" parent="WIyWlLk6GJQsqaUBKTNV-1" source="-IC_GQkUVM6EZ7AWoKce-77" target="-IC_GQkUVM6EZ7AWoKce-81" edge="1">
          <mxGeometry relative="1" as="geometry" />
        </mxCell>
        <mxCell id="-IC_GQkUVM6EZ7AWoKce-120" style="edgeStyle=orthogonalEdgeStyle;rounded=0;orthogonalLoop=1;jettySize=auto;html=1;strokeWidth=1;fontSize=24;" parent="WIyWlLk6GJQsqaUBKTNV-1" source="-IC_GQkUVM6EZ7AWoKce-0" target="-IC_GQkUVM6EZ7AWoKce-3" edge="1">
          <mxGeometry relative="1" as="geometry" />
        </mxCell>
        <mxCell id="-IC_GQkUVM6EZ7AWoKce-0" value="&lt;font style=&quot;font-size: 24px&quot;&gt;86 x 113 x 113&lt;/font&gt;" style="strokeWidth=1;html=1;shape=mxgraph.flowchart.stored_data;whiteSpace=wrap;" parent="WIyWlLk6GJQsqaUBKTNV-1" vertex="1">
          <mxGeometry x="30" y="40" width="210" height="30" as="geometry" />
        </mxCell>
        <mxCell id="-IC_GQkUVM6EZ7AWoKce-3" value="&lt;font style=&quot;font-size: 24px&quot;&gt;86 x 86&lt;/font&gt;" style="shape=parallelogram;html=1;strokeWidth=1;perimeter=parallelogramPerimeter;whiteSpace=wrap;rounded=1;arcSize=12;size=0.23;" parent="WIyWlLk6GJQsqaUBKTNV-1" vertex="1">
          <mxGeometry x="25" y="144" width="220" height="32" as="geometry" />
        </mxCell>
        <mxCell id="-IC_GQkUVM6EZ7AWoKce-112" style="edgeStyle=orthogonalEdgeStyle;rounded=0;orthogonalLoop=1;jettySize=auto;html=1;entryX=0.5;entryY=0;entryDx=0;entryDy=0;strokeWidth=1;fontSize=24;" parent="WIyWlLk6GJQsqaUBKTNV-1" source="-IC_GQkUVM6EZ7AWoKce-15" target="-IC_GQkUVM6EZ7AWoKce-110" edge="1">
          <mxGeometry relative="1" as="geometry" />
        </mxCell>
        <mxCell id="-IC_GQkUVM6EZ7AWoKce-162" style="edgeStyle=orthogonalEdgeStyle;rounded=0;orthogonalLoop=1;jettySize=auto;html=1;entryX=0.5;entryY=0;entryDx=0;entryDy=0;strokeWidth=1;fontSize=24;" parent="WIyWlLk6GJQsqaUBKTNV-1" source="-IC_GQkUVM6EZ7AWoKce-15" target="-IC_GQkUVM6EZ7AWoKce-161" edge="1">
          <mxGeometry relative="1" as="geometry" />
        </mxCell>
        <mxCell id="-IC_GQkUVM6EZ7AWoKce-15" value="&lt;font style=&quot;font-size: 24px&quot;&gt;&lt;b&gt;Statistical Analysis&lt;/b&gt;&lt;/font&gt;" style="html=1;dashed=0;whitespace=wrap;strokeWidth=1;fillColor=#dae8fc;strokeColor=#6c8ebf;" parent="WIyWlLk6GJQsqaUBKTNV-1" vertex="1">
          <mxGeometry x="102.01" y="424" width="620" height="30" as="geometry" />
        </mxCell>
        <mxCell id="-IC_GQkUVM6EZ7AWoKce-77" value="&lt;font style=&quot;font-size: 24px&quot;&gt;336 x 113 x 113&lt;/font&gt;" style="strokeWidth=1;html=1;shape=mxgraph.flowchart.stored_data;whiteSpace=wrap;" parent="WIyWlLk6GJQsqaUBKTNV-1" vertex="1">
          <mxGeometry x="307.01" y="40" width="210" height="30" as="geometry" />
        </mxCell>
        <mxCell id="-IC_GQkUVM6EZ7AWoKce-81" value="&lt;font style=&quot;font-size: 24px&quot;&gt;336 x 336&lt;/font&gt;" style="shape=parallelogram;html=1;strokeWidth=1;perimeter=parallelogramPerimeter;whiteSpace=wrap;rounded=1;arcSize=12;size=0.23;" parent="WIyWlLk6GJQsqaUBKTNV-1" vertex="1">
          <mxGeometry x="302.01" y="143" width="220" height="32" as="geometry" />
        </mxCell>
        <mxCell id="-IC_GQkUVM6EZ7AWoKce-90" value="&lt;font style=&quot;font-size: 24px&quot;&gt;754 x 113 x 113&lt;/font&gt;" style="strokeWidth=1;html=1;shape=mxgraph.flowchart.stored_data;whiteSpace=wrap;" parent="WIyWlLk6GJQsqaUBKTNV-1" vertex="1">
          <mxGeometry x="584" y="40" width="210" height="30" as="geometry" />
        </mxCell>
        <mxCell id="-IC_GQkUVM6EZ7AWoKce-94" value="&lt;font style=&quot;font-size: 24px&quot;&gt;754 x 754&lt;/font&gt;" style="shape=parallelogram;html=1;strokeWidth=1;perimeter=parallelogramPerimeter;whiteSpace=wrap;rounded=1;arcSize=12;size=0.23;" parent="WIyWlLk6GJQsqaUBKTNV-1" vertex="1">
          <mxGeometry x="579" y="143" width="220" height="32" as="geometry" />
        </mxCell>
        <mxCell id="-IC_GQkUVM6EZ7AWoKce-104" value="&lt;font style=&quot;font-size: 30px&quot;&gt;&lt;b&gt;DFC 2500&lt;/b&gt;&lt;/font&gt;" style="rounded=1;whiteSpace=wrap;html=1;strokeWidth=1;fillColor=#ffe6cc;strokeColor=#d79b00;" parent="WIyWlLk6GJQsqaUBKTNV-1" vertex="1">
          <mxGeometry x="42.5" y="-10" width="185" height="37" as="geometry" />
        </mxCell>
        <mxCell id="-IC_GQkUVM6EZ7AWoKce-105" value="&lt;font style=&quot;font-size: 30px&quot;&gt;&lt;b&gt;DFC 1400&lt;/b&gt;&lt;/font&gt;" style="rounded=1;whiteSpace=wrap;html=1;strokeWidth=1;fillColor=#d5e8d4;strokeColor=#82b366;" parent="WIyWlLk6GJQsqaUBKTNV-1" vertex="1">
          <mxGeometry x="319.51" y="-10" width="185" height="37" as="geometry" />
        </mxCell>
        <mxCell id="-IC_GQkUVM6EZ7AWoKce-106" value="&lt;font style=&quot;font-size: 30px&quot;&gt;&lt;b&gt;DFC 645&lt;/b&gt;&lt;/font&gt;" style="rounded=1;whiteSpace=wrap;html=1;strokeWidth=1;fillColor=#f8cecc;strokeColor=#b85450;" parent="WIyWlLk6GJQsqaUBKTNV-1" vertex="1">
          <mxGeometry x="596.5" y="-10" width="185" height="37" as="geometry" />
        </mxCell>
        <mxCell id="-IC_GQkUVM6EZ7AWoKce-110" value="&lt;b&gt;Pairwise&lt;/b&gt;" style="rounded=1;whiteSpace=wrap;html=1;absoluteArcSize=1;arcSize=14;strokeWidth=1;fontSize=24;fillColor=#dae8fc;strokeColor=#6c8ebf;" parent="WIyWlLk6GJQsqaUBKTNV-1" vertex="1">
          <mxGeometry x="80" y="494" width="330" height="30" as="geometry" />
        </mxCell>
        <mxCell id="-IC_GQkUVM6EZ7AWoKce-117" value="&lt;span style=&quot;font-size: 24px&quot;&gt;&lt;b&gt;Correlation Coefficient Between Time Periods&lt;/b&gt;&lt;/span&gt;" style="html=1;dashed=0;whitespace=wrap;strokeWidth=1;fillColor=#dae8fc;strokeColor=#6c8ebf;" parent="WIyWlLk6GJQsqaUBKTNV-1" vertex="1">
          <mxGeometry x="40" y="88" width="750" height="32" as="geometry" />
        </mxCell>
        <mxCell id="-IC_GQkUVM6EZ7AWoKce-137" style="edgeStyle=orthogonalEdgeStyle;rounded=0;orthogonalLoop=1;jettySize=auto;html=1;strokeWidth=1;fontSize=24;" parent="WIyWlLk6GJQsqaUBKTNV-1" target="-IC_GQkUVM6EZ7AWoKce-142" edge="1">
          <mxGeometry relative="1" as="geometry">
            <mxPoint x="689" y="175" as="sourcePoint" />
          </mxGeometry>
        </mxCell>
        <mxCell id="-IC_GQkUVM6EZ7AWoKce-138" style="edgeStyle=orthogonalEdgeStyle;rounded=0;orthogonalLoop=1;jettySize=auto;html=1;entryX=0.5;entryY=0;entryDx=0;entryDy=0;strokeWidth=1;fontSize=24;" parent="WIyWlLk6GJQsqaUBKTNV-1" target="-IC_GQkUVM6EZ7AWoKce-141" edge="1">
          <mxGeometry relative="1" as="geometry">
            <mxPoint x="412.01" y="175" as="sourcePoint" />
          </mxGeometry>
        </mxCell>
        <mxCell id="-IC_GQkUVM6EZ7AWoKce-139" style="edgeStyle=orthogonalEdgeStyle;rounded=0;orthogonalLoop=1;jettySize=auto;html=1;strokeWidth=1;fontSize=24;" parent="WIyWlLk6GJQsqaUBKTNV-1" target="-IC_GQkUVM6EZ7AWoKce-140" edge="1">
          <mxGeometry relative="1" as="geometry">
            <mxPoint x="135" y="175" as="sourcePoint" />
          </mxGeometry>
        </mxCell>
        <mxCell id="-IC_GQkUVM6EZ7AWoKce-140" value="&lt;font style=&quot;font-size: 24px&quot;&gt;86 x 2&lt;/font&gt;" style="shape=parallelogram;html=1;strokeWidth=1;perimeter=parallelogramPerimeter;whiteSpace=wrap;rounded=1;arcSize=12;size=0.23;" parent="WIyWlLk6GJQsqaUBKTNV-1" vertex="1">
          <mxGeometry x="25" y="249" width="220" height="32" as="geometry" />
        </mxCell>
        <mxCell id="-IC_GQkUVM6EZ7AWoKce-141" value="&lt;font style=&quot;font-size: 24px&quot;&gt;336 x 2&lt;/font&gt;" style="shape=parallelogram;html=1;strokeWidth=1;perimeter=parallelogramPerimeter;whiteSpace=wrap;rounded=1;arcSize=12;size=0.23;" parent="WIyWlLk6GJQsqaUBKTNV-1" vertex="1">
          <mxGeometry x="302.01" y="248" width="220" height="32" as="geometry" />
        </mxCell>
        <mxCell id="-IC_GQkUVM6EZ7AWoKce-142" value="&lt;font style=&quot;font-size: 24px&quot;&gt;754 x 2&lt;/font&gt;" style="shape=parallelogram;html=1;strokeWidth=1;perimeter=parallelogramPerimeter;whiteSpace=wrap;rounded=1;arcSize=12;size=0.23;" parent="WIyWlLk6GJQsqaUBKTNV-1" vertex="1">
          <mxGeometry x="579" y="248" width="220" height="32" as="geometry" />
        </mxCell>
        <mxCell id="-IC_GQkUVM6EZ7AWoKce-143" value="&lt;span style=&quot;font-size: 24px&quot;&gt;&lt;b&gt;Multidimensional Scaling&lt;/b&gt;&lt;/span&gt;" style="html=1;dashed=0;whitespace=wrap;strokeWidth=1;fillColor=#dae8fc;strokeColor=#6c8ebf;" parent="WIyWlLk6GJQsqaUBKTNV-1" vertex="1">
          <mxGeometry x="40" y="193" width="750" height="32" as="geometry" />
        </mxCell>
        <mxCell id="-IC_GQkUVM6EZ7AWoKce-144" style="edgeStyle=orthogonalEdgeStyle;rounded=0;orthogonalLoop=1;jettySize=auto;html=1;strokeWidth=1;fontSize=24;" parent="WIyWlLk6GJQsqaUBKTNV-1" target="-IC_GQkUVM6EZ7AWoKce-149" edge="1">
          <mxGeometry relative="1" as="geometry">
            <mxPoint x="689" y="280" as="sourcePoint" />
          </mxGeometry>
        </mxCell>
        <mxCell id="-IC_GQkUVM6EZ7AWoKce-145" style="edgeStyle=orthogonalEdgeStyle;rounded=0;orthogonalLoop=1;jettySize=auto;html=1;entryX=0.5;entryY=0;entryDx=0;entryDy=0;strokeWidth=1;fontSize=24;" parent="WIyWlLk6GJQsqaUBKTNV-1" target="-IC_GQkUVM6EZ7AWoKce-148" edge="1">
          <mxGeometry relative="1" as="geometry">
            <mxPoint x="412.01" y="280" as="sourcePoint" />
          </mxGeometry>
        </mxCell>
        <mxCell id="-IC_GQkUVM6EZ7AWoKce-146" style="edgeStyle=orthogonalEdgeStyle;rounded=0;orthogonalLoop=1;jettySize=auto;html=1;strokeWidth=1;fontSize=24;" parent="WIyWlLk6GJQsqaUBKTNV-1" target="-IC_GQkUVM6EZ7AWoKce-147" edge="1">
          <mxGeometry relative="1" as="geometry">
            <mxPoint x="135" y="280" as="sourcePoint" />
          </mxGeometry>
        </mxCell>
        <mxCell id="-IC_GQkUVM6EZ7AWoKce-155" style="edgeStyle=orthogonalEdgeStyle;rounded=0;orthogonalLoop=1;jettySize=auto;html=1;entryX=0.5;entryY=0;entryDx=0;entryDy=0;strokeWidth=1;fontSize=24;" parent="WIyWlLk6GJQsqaUBKTNV-1" source="-IC_GQkUVM6EZ7AWoKce-147" target="-IC_GQkUVM6EZ7AWoKce-15" edge="1">
          <mxGeometry relative="1" as="geometry" />
        </mxCell>
        <mxCell id="-IC_GQkUVM6EZ7AWoKce-147" value="&lt;font style=&quot;font-size: 24px&quot;&gt;# of clusters&lt;/font&gt;" style="shape=parallelogram;html=1;strokeWidth=1;perimeter=parallelogramPerimeter;whiteSpace=wrap;rounded=1;arcSize=12;size=0.23;" parent="WIyWlLk6GJQsqaUBKTNV-1" vertex="1">
          <mxGeometry x="25" y="352" width="220" height="32" as="geometry" />
        </mxCell>
        <mxCell id="-IC_GQkUVM6EZ7AWoKce-159" style="edgeStyle=orthogonalEdgeStyle;rounded=0;orthogonalLoop=1;jettySize=auto;html=1;entryX=0.5;entryY=0;entryDx=0;entryDy=0;strokeWidth=1;fontSize=24;" parent="WIyWlLk6GJQsqaUBKTNV-1" source="-IC_GQkUVM6EZ7AWoKce-148" target="-IC_GQkUVM6EZ7AWoKce-15" edge="1">
          <mxGeometry relative="1" as="geometry" />
        </mxCell>
        <mxCell id="-IC_GQkUVM6EZ7AWoKce-148" value="&lt;span style=&quot;font-size: 24px&quot;&gt;# of clusters&lt;/span&gt;" style="shape=parallelogram;html=1;strokeWidth=1;perimeter=parallelogramPerimeter;whiteSpace=wrap;rounded=1;arcSize=12;size=0.23;" parent="WIyWlLk6GJQsqaUBKTNV-1" vertex="1">
          <mxGeometry x="302.01" y="353" width="220" height="32" as="geometry" />
        </mxCell>
        <mxCell id="-IC_GQkUVM6EZ7AWoKce-160" style="edgeStyle=orthogonalEdgeStyle;rounded=0;orthogonalLoop=1;jettySize=auto;html=1;entryX=0.5;entryY=0;entryDx=0;entryDy=0;strokeWidth=1;fontSize=24;" parent="WIyWlLk6GJQsqaUBKTNV-1" source="-IC_GQkUVM6EZ7AWoKce-149" target="-IC_GQkUVM6EZ7AWoKce-15" edge="1">
          <mxGeometry relative="1" as="geometry" />
        </mxCell>
        <mxCell id="-IC_GQkUVM6EZ7AWoKce-149" value="&lt;span style=&quot;font-size: 24px&quot;&gt;# of clusters&lt;/span&gt;" style="shape=parallelogram;html=1;strokeWidth=1;perimeter=parallelogramPerimeter;whiteSpace=wrap;rounded=1;arcSize=12;size=0.23;" parent="WIyWlLk6GJQsqaUBKTNV-1" vertex="1">
          <mxGeometry x="579" y="352" width="220" height="32" as="geometry" />
        </mxCell>
        <mxCell id="-IC_GQkUVM6EZ7AWoKce-150" value="&lt;span style=&quot;font-size: 24px&quot;&gt;&lt;b&gt;Clustering&lt;/b&gt;&lt;/span&gt;" style="html=1;dashed=0;whitespace=wrap;strokeWidth=1;fillColor=#dae8fc;strokeColor=#6c8ebf;" parent="WIyWlLk6GJQsqaUBKTNV-1" vertex="1">
          <mxGeometry x="40" y="298" width="750" height="32" as="geometry" />
        </mxCell>
        <mxCell id="-IC_GQkUVM6EZ7AWoKce-161" value="&lt;b&gt;Across cohorts&lt;/b&gt;" style="rounded=1;whiteSpace=wrap;html=1;absoluteArcSize=1;arcSize=14;strokeWidth=1;fontSize=24;fillColor=#dae8fc;strokeColor=#6c8ebf;" parent="WIyWlLk6GJQsqaUBKTNV-1" vertex="1">
          <mxGeometry x="414" y="494" width="330" height="30" as="geometry" />
        </mxCell>
      </root>
    </mxGraphModel>
  </diagram>
</mxfile>
